<?xml version="1.0" encoding="UTF-8"?>
<svg id="Calque_1" data-name="Calque 1" xmlns="http://www.w3.org/2000/svg" viewBox="0 0 1920 1080">
  <defs>
    <style>
      .cls-1 {
        fill: #0b1e0b;
      }

      .cls-1, .cls-2 {
        stroke-width: 0px;
      }

      .cls-2 {
        fill: #80c684;
      }
    </style>
  </defs>
  <g>
    <path class="cls-2" d="m867.09,517.24s40.06,15,71.1,60.31c-1.63,22.66-13.31,58.97-13.31,58.97,0,0-41.86-29.02-53.38-61.66-11.52-32.64-4.42-57.62-4.42-57.62Z"/>
    <path class="cls-2" d="m962.52,653.39s-12.86-88.75,90.63-136.15c4.8,10.2-4.22,57.24-4.22,57.24,0,0-33.6,66.63-86.4,78.91Z"/>
    <path class="cls-2" d="m960,500.17c-20.19,7.1-30.31,22.27-30.31,22.27l30.31,23.85,30.31-23.85s-10.13-15.17-30.31-22.27Z"/>
  </g>
  <path class="cls-1" d="m1102.57,493.44l-122.12-90.58c-12.23-9.07-28.67-9.07-40.89,0l-122.12,90.58c-8.69,6.44-13.88,16.75-13.88,27.57v69.58c0,26.96,11.38,52.56,31.23,70.24,19.42,17.29,45.34,25.5,71.12,22.5,19.65-2.28,37.72-6.51,54.13-12.65,16.43,6.14,34.59,10.39,54.07,12.65,3.5.41,7,.61,10.49.61,22.29,0,44.04-8.2,60.91-23.22,19.67-17.51,30.95-42.66,30.95-68.99v-70.71c0-10.82-5.19-21.12-13.88-27.57Zm-142.57,48.97c-9.29-9.35-19.3-16.73-29.29-22.54,3.8-9.53,12.64-27.28,29.28-39.4,16.55,12.07,25.44,29.88,29.27,39.43-9.98,5.81-19.98,13.17-29.26,22.51Zm-11.86,13.64c-14.75,19.43-24.34,42.9-28.68,70.2-28.55-25.16-45.53-61.68-50.61-108.92,17.07,2.55,52.28,11.02,79.29,38.72Zm-13.37,103.65c.42-42.61,12.13-76.67,34.91-101.38,27.23-29.54,63.93-38.38,81.47-40.99-9.87,91.32-63.32,128.47-116.38,142.37Zm163.68-67.98c0,21.2-9.08,41.45-24.92,55.55-15.68,13.96-36.59,20.59-57.35,18.17-11.14-1.29-21.78-3.28-31.84-5.94,9.58-5.31,18.43-11.44,26.52-18.36,35.32-30.23,55.24-75.07,59.18-133.28.17-2.53-.73-5.01-2.48-6.84-1.75-1.83-4.19-2.82-6.73-2.77-1.61.04-26.59.9-55.42,13.46-5.41-13.03-17.56-35.66-40.73-49.76-2.87-1.75-6.48-1.75-9.36,0-23.16,14.09-35.31,36.71-40.72,49.75-28.78-12.54-53.75-13.41-55.43-13.45-2.53-.07-4.98.94-6.73,2.77-1.75,1.83-2.66,4.31-2.48,6.84,4.25,62.63,26.86,109.57,67.22,139.68-.31,5.23-.45,10.56-.42,16.03-4.36.75-8.68,1.36-12.94,1.86-20.99,2.43-41.25-3.97-57.07-18.06-16.02-14.26-25.2-34.96-25.2-56.79v-69.58c0-5.15,2.47-10.05,6.6-13.11l122.12-90.58c2.91-2.16,6.32-3.24,9.72-3.24s6.82,1.08,9.72,3.24l122.12,90.58c4.13,3.07,6.6,7.97,6.6,13.11v70.71Z"/>
</svg>