<?xml version="1.0" encoding="utf-8"?>
<!-- Generator: Adobe Illustrator 28.0.0, SVG Export Plug-In . SVG Version: 6.00 Build 0)  -->
<svg version="1.1" id="Calque_1" xmlns="http://www.w3.org/2000/svg" xmlns:xlink="http://www.w3.org/1999/xlink" x="0px" y="0px"
	 viewBox="0 0 1920 1080" style="enable-background:new 0 0 1920 1080;" xml:space="preserve">
<style type="text/css">
	.st0{fill:#FFFFFF;}
</style>
<path class="st0" d="M1102.6,493.4l-122.1-90.6c-12.2-9.1-28.7-9.1-40.9,0l-122.1,90.6c-8.7,6.4-13.9,16.8-13.9,27.6v69.6
	c0,27,11.4,52.6,31.2,70.2c19.4,17.3,45.3,25.5,71.1,22.5c19.7-2.3,37.7-6.5,54.1-12.7c16.4,6.1,34.6,10.4,54.1,12.7
	c3.5,0.4,7,0.6,10.5,0.6c22.3,0,44-8.2,60.9-23.2c19.7-17.5,30.9-42.7,30.9-69V521C1116.5,510.2,1111.3,499.9,1102.6,493.4
	L1102.6,493.4z M960,542.4c-9.3-9.3-19.3-16.7-29.3-22.5c3.8-9.5,12.6-27.3,29.3-39.4c16.5,12.1,25.4,29.9,29.3,39.4
	C979.3,525.7,969.3,533.1,960,542.4L960,542.4z M948.1,556.1c-14.8,19.4-24.3,42.9-28.7,70.2c-28.5-25.2-45.5-61.7-50.6-108.9
	C885.9,519.9,921.1,528.4,948.1,556.1z M934.8,659.7c0.4-42.6,12.1-76.7,34.9-101.4c27.2-29.5,63.9-38.4,81.5-41
	C1041.3,608.7,987.8,645.8,934.8,659.7L934.8,659.7z M1098.4,591.7c0,21.2-9.1,41.5-24.9,55.5c-15.7,14-36.6,20.6-57.3,18.2
	c-11.1-1.3-21.8-3.3-31.8-5.9c9.6-5.3,18.4-11.4,26.5-18.4c35.3-30.2,55.2-75.1,59.2-133.3c0.2-2.5-0.7-5-2.5-6.8s-4.2-2.8-6.7-2.8
	c-1.6,0-26.6,0.9-55.4,13.5c-5.4-13-17.6-35.7-40.7-49.8c-2.9-1.8-6.5-1.8-9.4,0c-23.2,14.1-35.3,36.7-40.7,49.8
	c-28.8-12.5-53.8-13.4-55.4-13.5c-2.5-0.1-5,0.9-6.7,2.8s-2.7,4.3-2.5,6.8c4.2,62.6,26.9,109.6,67.2,139.7c-0.3,5.2-0.5,10.6-0.4,16
	c-4.4,0.8-8.7,1.4-12.9,1.9c-21,2.4-41.2-4-57.1-18.1c-16-14.3-25.2-35-25.2-56.8V521c0-5.2,2.5-10,6.6-13.1l122.1-90.6
	c2.9-2.2,6.3-3.2,9.7-3.2s6.8,1.1,9.7,3.2l122.1,90.6c4.1,3.1,6.6,8,6.6,13.1L1098.4,591.7L1098.4,591.7z"/>
</svg>
