<?xml version="1.0" encoding="UTF-8"?>
<svg id="Calque_1" data-name="Calque 1" xmlns="http://www.w3.org/2000/svg" viewBox="0 0 1920 1080">
  <defs>
    <style>
      .cls-1 {
        fill: #4cae4f;
      }

      .cls-1, .cls-2 {
        stroke-width: 0px;
      }

      .cls-2 {
        fill: #c4e0a3;
      }
    </style>
  </defs>
  <g>
    <path class="cls-2" d="m867.09,417.31s40.06,15,71.1,60.31c-1.63,22.66-13.31,58.97-13.31,58.97,0,0-41.86-29.02-53.38-61.66-11.52-32.64-4.42-57.62-4.42-57.62Z"/>
    <path class="cls-2" d="m962.52,553.47s-12.86-88.75,90.63-136.15c4.8,10.2-4.22,57.24-4.22,57.24,0,0-33.6,66.63-86.4,78.91Z"/>
    <path class="cls-2" d="m960,400.25c-20.19,7.1-30.31,22.27-30.31,22.27l30.31,23.85,30.31-23.85s-10.13-15.17-30.31-22.27Z"/>
  </g>
  <path class="cls-1" d="m1102.57,393.52l-122.12-90.58c-12.23-9.07-28.67-9.07-40.89,0l-122.12,90.58c-8.69,6.44-13.88,16.75-13.88,27.57v69.58c0,26.96,11.38,52.56,31.23,70.24,19.42,17.29,45.34,25.5,71.12,22.5,19.65-2.28,37.72-6.51,54.13-12.65,16.43,6.14,34.59,10.39,54.07,12.65,3.5.41,7,.61,10.49.61,22.29,0,44.04-8.2,60.91-23.22,19.67-17.51,30.95-42.66,30.95-68.99v-70.71c0-10.82-5.19-21.12-13.88-27.57Zm-142.57,48.97c-9.29-9.35-19.3-16.73-29.29-22.54,3.8-9.53,12.64-27.28,29.28-39.4,16.55,12.07,25.44,29.88,29.27,39.43-9.98,5.81-19.98,13.17-29.26,22.51Zm-11.86,13.64c-14.75,19.43-24.34,42.9-28.68,70.2-28.55-25.16-45.53-61.68-50.61-108.92,17.07,2.55,52.28,11.02,79.29,38.72Zm-13.37,103.65c.42-42.61,12.13-76.67,34.91-101.38,27.23-29.54,63.93-38.38,81.47-40.99-9.87,91.32-63.32,128.47-116.38,142.37Zm163.68-67.98c0,21.2-9.08,41.45-24.92,55.55-15.68,13.96-36.59,20.59-57.35,18.17-11.14-1.29-21.78-3.28-31.84-5.94,9.58-5.31,18.43-11.44,26.52-18.36,35.32-30.23,55.24-75.07,59.18-133.28.17-2.53-.73-5.01-2.48-6.84-1.75-1.83-4.19-2.82-6.73-2.77-1.61.04-26.59.9-55.42,13.46-5.41-13.03-17.56-35.66-40.73-49.76-2.87-1.75-6.48-1.75-9.36,0-23.16,14.09-35.31,36.71-40.72,49.75-28.78-12.54-53.75-13.41-55.43-13.45-2.53-.07-4.98.94-6.73,2.77-1.75,1.83-2.66,4.31-2.48,6.84,4.25,62.63,26.86,109.57,67.22,139.68-.31,5.23-.45,10.56-.42,16.03-4.36.75-8.68,1.36-12.94,1.86-20.99,2.43-41.25-3.97-57.07-18.06-16.02-14.26-25.2-34.96-25.2-56.79v-69.58c0-5.15,2.47-10.05,6.6-13.11l122.12-90.58c2.91-2.16,6.32-3.24,9.72-3.24s6.82,1.08,9.72,3.24l122.12,90.58c4.13,3.07,6.6,7.97,6.6,13.11v70.71Z"/>
  <g>
    <path class="cls-1" d="m691.9,745.94c-12.76,0-23.4-4.58-32.03-13.81-8.62-9.24-12.93-20.68-12.93-34.31s4.31-25.34,12.93-34.49c8.62-9.15,19.36-13.73,32.11-13.73s22.26,4.49,29.3,13.55v-6.38c0-2.55,2.07-4.62,4.62-4.62h14.78c2.55,0,4.62,2.07,4.62,4.62v81.91c0,2.55-2.07,4.62-4.62,4.62h-14.78c-2.55,0-4.62-2.07-4.62-4.62v-6.55c-7.04,9.15-16.8,13.73-29.3,13.73l-.09.09Zm4.14-21.47c7.3,0,13.46-2.55,18.48-7.65,5.02-5.1,7.48-11.53,7.48-19.36s-2.46-13.99-7.48-19-11.17-7.57-18.48-7.57-13.64,2.46-18.48,7.48c-4.84,5.01-7.21,11.44-7.21,19.27s2.38,14.43,7.21,19.44c4.84,5.01,11,7.57,18.48,7.57v-.18Z"/>
    <path class="cls-1" d="m788.96,665.7c5.34-10.53,13.91-15.58,25.71-15.17,2.45.09,4.38,2.16,4.38,4.61v12.98c0,2.62-2.17,4.76-4.78,4.62-7.59-.41-13.48,1.43-17.65,5.54-5.02,4.93-7.57,13.37-7.57,25.34v35.06c0,2.55-2.07,4.62-4.62,4.62h-14.51c-2.55,0-4.62-2.07-4.62-4.62v-81.91c0-2.55,2.07-4.62,4.62-4.62h14.51c2.55,0,4.62,2.07,4.62,4.62v8.84l-.09.09Z"/>
    <path class="cls-1" d="m873.54,745.85c-14.08,0-25.69-4.58-34.93-13.81-9.24-9.24-13.81-20.68-13.81-34.4s4.66-25.16,13.9-34.31c9.24-9.15,20.85-13.73,34.93-13.73s25.69,4.58,34.93,13.73c9.24,9.15,13.81,20.59,13.81,34.31s-4.58,25.16-13.81,34.4c-9.24,9.24-20.85,13.81-34.84,13.81h-.18Zm18.48-29.12c4.75-5.02,7.13-11.35,7.13-19s-2.38-13.99-7.13-19c-4.75-5.01-10.91-7.48-18.48-7.48s-13.73,2.46-18.48,7.48c-4.75,5.02-7.13,11.35-7.13,19s2.38,13.99,7.13,19c4.75,5.01,10.91,7.48,18.48,7.48s13.73-2.46,18.48-7.48Z"/>
    <path class="cls-1" d="m973.15,745.76c-10.82,0-20.32-2.82-28.51-8.36-6.31-4.27-10.89-9.17-13.75-14.7-1.33-2.57.06-5.72,2.84-6.53l12.71-3.7c2.03-.59,4.25.24,5.27,2.09,1.68,3.04,4.11,5.6,7.28,7.71,4.22,2.82,9.24,4.22,15.13,4.22,4.49,0,8.09-.88,10.91-2.73s4.22-4.05,4.22-6.69c0-3.96-3.34-6.95-10.12-8.97l-23.23-6.86c-15.04-4.31-22.52-12.41-22.52-24.28,0-7.57,3.61-13.99,10.73-19.36,7.13-5.37,15.75-8.01,25.87-8.01,9.59,0,18.04,2.11,25.25,6.33,5.26,3.08,9.4,6.86,12.38,11.38,1.7,2.57.35,6.06-2.6,6.93l-12.38,3.61c-1.86.54-3.84-.15-5.01-1.7-4.02-5.34-9.95-7.99-17.73-7.99-3.61,0-6.69.79-9.24,2.46-2.55,1.67-3.78,3.61-3.78,5.81,0,3.34,2.55,5.72,7.57,7.21l22.7,6.51c8.18,2.38,14.52,5.46,19,9.15,4.49,3.7,6.69,9.24,6.69,16.72,0,8.62-3.7,15.75-11.09,21.38s-16.8,8.45-28.33,8.45l-.26-.09Z"/>
    <path class="cls-1" d="m1066.49,745.94c-12.76,0-23.4-4.58-32.03-13.81-8.62-9.24-12.93-20.68-12.93-34.31s4.31-25.34,12.93-34.49c8.62-9.15,19.36-13.73,32.11-13.73s22.26,4.49,29.3,13.55v-6.38c0-2.55,2.07-4.62,4.62-4.62h14.78c2.55,0,4.62,2.07,4.62,4.62v81.91c0,2.55-2.07,4.62-4.62,4.62h-14.78c-2.55,0-4.62-2.07-4.62-4.62v-6.55c-7.04,9.15-16.8,13.73-29.3,13.73l-.09.09Zm4.14-21.47c7.3,0,13.46-2.55,18.48-7.65,5.01-5.1,7.48-11.53,7.48-19.36s-2.46-13.99-7.48-19c-5.02-5.01-11.17-7.57-18.48-7.57s-13.64,2.46-18.48,7.48c-4.84,5.01-7.21,11.44-7.21,19.27s2.38,14.43,7.21,19.44,11,7.57,18.48,7.57v-.18Z"/>
    <path class="cls-1" d="m1144.5,652.41h14.52c2.55,0,4.62,2.07,4.62,4.62v89.43c0,11.79-2.64,20.94-7.83,27.54-5.19,6.6-13.11,9.85-23.67,9.85-4.24,0-8.57-.77-13.02-2.31-2.34-.81-3.64-3.32-2.94-5.7l2.81-9.48c.69-2.34,3.1-3.82,5.45-3.21,1.35.35,2.72.51,4.08.46,7.57,0,11.35-5.1,11.35-15.31v-91.28c0-2.55,2.07-4.62,4.62-4.62Zm7.52-12.93c-3.96,0-7.3-1.32-10.03-4.05s-4.14-6.07-4.14-10.03,1.41-7.13,4.14-9.77,6.07-3.96,10.03-3.96,7.3,1.32,10.03,3.96,4.13,5.89,4.13,9.77-1.41,7.3-4.13,9.94-6.07,3.96-10.03,3.96v.18Z"/>
    <path class="cls-1" d="m1227.66,745.94c-14.69,0-26.57-4.4-35.72-13.2-9.15-8.8-13.73-20.41-13.73-34.84s4.4-25.34,13.2-34.49c8.8-9.15,20.32-13.73,34.49-13.73s26.04,4.4,34.49,13.29c8.45,8.89,12.67,20.06,12.67,33.52,0,1.49-.03,2.84-.09,4.04-.12,2.47-2.15,4.4-4.62,4.4h-60.76c-3.21,0-5.51,3.21-4.34,6.2,1.36,3.46,3.48,6.41,6.37,8.85,4.49,3.78,10.65,5.63,18.56,5.63,9.27,0,16.1-3.12,20.49-9.31,1.14-1.61,3.17-2.31,5.06-1.75l12.62,3.72c2.95.87,4.28,4.35,2.59,6.93-3.09,4.72-7.43,9-13.05,12.81-7.65,5.19-16.98,7.83-27.98,7.83l-.26.09Zm16.2-55.87c3.29,0,5.54-3.35,4.28-6.39s-3.18-5.71-5.78-8.04c-4.31-3.87-9.85-5.81-16.72-5.81s-12.05,2.02-16.45,5.98c-2.58,2.32-4.52,4.91-5.83,7.78-1.39,3.03.9,6.48,4.24,6.48h36.27Z"/>
  </g>
</svg>