<?xml version="1.0" encoding="utf-8"?>
<!-- Generator: Adobe Illustrator 28.0.0, SVG Export Plug-In . SVG Version: 6.00 Build 0)  -->
<svg version="1.1" id="Calque_1" xmlns="http://www.w3.org/2000/svg" xmlns:xlink="http://www.w3.org/1999/xlink" x="0px" y="0px"
	 viewBox="0 0 1920 1080" style="enable-background:new 0 0 1920 1080;" xml:space="preserve">
<style type="text/css">
	.st0{fill:#FFFFFF;}
</style>
<path class="st0" d="M1102.6,393.5l-122.1-90.6c-12.2-9.1-28.7-9.1-40.9,0l-122.1,90.6c-8.7,6.4-13.9,16.8-13.9,27.6v69.6
	c0,27,11.4,52.6,31.2,70.2c19.4,17.3,45.3,25.5,71.1,22.5c19.7-2.3,37.7-6.5,54.1-12.7c16.4,6.1,34.6,10.4,54.1,12.7
	c3.5,0.4,7,0.6,10.5,0.6c22.3,0,44-8.2,60.9-23.2c19.7-17.5,30.9-42.7,30.9-69v-70.7C1116.5,410.3,1111.3,400,1102.6,393.5
	L1102.6,393.5z M960,442.5c-9.3-9.4-19.3-16.7-29.3-22.5c3.8-9.5,12.6-27.3,29.3-39.4c16.5,12.1,25.4,29.9,29.3,39.4
	C979.3,425.8,969.3,433.1,960,442.5L960,442.5z M948.1,456.1c-14.8,19.4-24.3,42.9-28.7,70.2c-28.5-25.2-45.5-61.7-50.6-108.9
	C885.9,420,921.1,428.4,948.1,456.1L948.1,456.1z M934.8,559.8c0.4-42.6,12.1-76.7,34.9-101.4c27.2-29.5,63.9-38.4,81.5-41
	C1041.3,508.7,987.8,545.9,934.8,559.8L934.8,559.8z M1098.4,491.8c0,21.2-9.1,41.4-24.9,55.6c-15.7,14-36.6,20.6-57.3,18.2
	c-11.1-1.3-21.8-3.3-31.8-5.9c9.6-5.3,18.4-11.4,26.5-18.4c35.3-30.2,55.2-75.1,59.2-133.3c0.2-2.5-0.7-5-2.5-6.8s-4.2-2.8-6.7-2.8
	c-1.6,0-26.6,0.9-55.4,13.5c-5.4-13-17.6-35.7-40.7-49.8c-2.9-1.8-6.5-1.8-9.4,0c-23.2,14.1-35.3,36.7-40.7,49.8
	c-28.8-12.5-53.8-13.4-55.4-13.5c-2.5-0.1-5,0.9-6.7,2.8s-2.7,4.3-2.5,6.8c4.2,62.6,26.9,109.6,67.2,139.7c-0.3,5.2-0.5,10.6-0.4,16
	c-4.4,0.8-8.7,1.4-12.9,1.9c-21,2.4-41.2-4-57.1-18.1c-16-14.3-25.2-35-25.2-56.8v-69.6c0-5.1,2.5-10,6.6-13.1l122.1-90.6
	c2.9-2.2,6.3-3.2,9.7-3.2s6.8,1.1,9.7,3.2l122.1,90.6c4.1,3.1,6.6,8,6.6,13.1L1098.4,491.8L1098.4,491.8z"/>
<g>
	<path class="st0" d="M691.9,745.9c-12.8,0-23.4-4.6-32-13.8c-8.6-9.2-12.9-20.7-12.9-34.3s4.3-25.3,12.9-34.5
		c8.6-9.2,19.4-13.7,32.1-13.7s22.3,4.5,29.3,13.5v-6.4c0-2.5,2.1-4.6,4.6-4.6h14.8c2.5,0,4.6,2.1,4.6,4.6v81.9
		c0,2.5-2.1,4.6-4.6,4.6h-14.8c-2.5,0-4.6-2.1-4.6-4.6v-6.5C714.2,741.3,704.5,745.9,691.9,745.9L691.9,745.9L691.9,745.9z
		 M696,724.5c7.3,0,13.5-2.5,18.5-7.7c5-5.1,7.5-11.5,7.5-19.4s-2.5-14-7.5-19s-11.2-7.6-18.5-7.6s-13.6,2.5-18.5,7.5
		c-4.8,5-7.2,11.4-7.2,19.3s2.4,14.4,7.2,19.4c4.8,5,11,7.6,18.5,7.6V724.5z"/>
	<path class="st0" d="M789,665.7c5.3-10.5,13.9-15.6,25.7-15.2c2.5,0.1,4.4,2.2,4.4,4.6v13c0,2.6-2.2,4.8-4.8,4.6
		c-7.6-0.4-13.5,1.4-17.7,5.5c-5,4.9-7.6,13.4-7.6,25.3v35.1c0,2.5-2.1,4.6-4.6,4.6h-14.5c-2.5,0-4.6-2.1-4.6-4.6v-81.9
		c0-2.5,2.1-4.6,4.6-4.6h14.5c2.5,0,4.6,2.1,4.6,4.6L789,665.7L789,665.7L789,665.7z"/>
	<path class="st0" d="M873.5,745.8c-14.1,0-25.7-4.6-34.9-13.8c-9.2-9.2-13.8-20.7-13.8-34.4s4.7-25.2,13.9-34.3
		c9.2-9.2,20.8-13.7,34.9-13.7s25.7,4.6,34.9,13.7c9.2,9.2,13.8,20.6,13.8,34.3s-4.6,25.2-13.8,34.4c-9.2,9.2-20.8,13.8-34.8,13.8
		H873.5z M892,716.7c4.8-5,7.1-11.3,7.1-19s-2.4-14-7.1-19s-10.9-7.5-18.5-7.5s-13.7,2.5-18.5,7.5c-4.8,5-7.1,11.3-7.1,19
		s2.4,14,7.1,19s10.9,7.5,18.5,7.5S887.3,721.7,892,716.7z"/>
	<path class="st0" d="M973.2,745.8c-10.8,0-20.3-2.8-28.5-8.4c-6.3-4.3-10.9-9.2-13.8-14.7c-1.3-2.6,0.1-5.7,2.8-6.5l12.7-3.7
		c2-0.6,4.2,0.2,5.3,2.1c1.7,3,4.1,5.6,7.3,7.7c4.2,2.8,9.2,4.2,15.1,4.2c4.5,0,8.1-0.9,10.9-2.7s4.2-4,4.2-6.7c0-4-3.3-7-10.1-9
		l-23.2-6.9c-15-4.3-22.5-12.4-22.5-24.3c0-7.6,3.6-14,10.7-19.4c7.1-5.4,15.8-8,25.9-8c9.6,0,18,2.1,25.2,6.3
		c5.3,3.1,9.4,6.9,12.4,11.4c1.7,2.6,0.3,6.1-2.6,6.9l-12.4,3.6c-1.9,0.5-3.8-0.2-5-1.7c-4-5.3-10-8-17.7-8c-3.6,0-6.7,0.8-9.2,2.5
		c-2.5,1.7-3.8,3.6-3.8,5.8c0,3.3,2.5,5.7,7.6,7.2l22.7,6.5c8.2,2.4,14.5,5.5,19,9.2c4.5,3.7,6.7,9.2,6.7,16.7
		c0,8.6-3.7,15.8-11.1,21.4s-16.8,8.5-28.3,8.5L973.2,745.8L973.2,745.8z"/>
	<path class="st0" d="M1066.5,745.9c-12.8,0-23.4-4.6-32-13.8c-8.6-9.2-12.9-20.7-12.9-34.3s4.3-25.3,12.9-34.5
		c8.6-9.2,19.4-13.7,32.1-13.7s22.3,4.5,29.3,13.5v-6.4c0-2.5,2.1-4.6,4.6-4.6h14.8c2.6,0,4.6,2.1,4.6,4.6v81.9
		c0,2.5-2.1,4.6-4.6,4.6h-14.8c-2.6,0-4.6-2.1-4.6-4.6v-6.5C1088.8,741.3,1079.1,745.9,1066.5,745.9L1066.5,745.9L1066.5,745.9z
		 M1070.6,724.5c7.3,0,13.5-2.5,18.5-7.7c5-5.1,7.5-11.5,7.5-19.4s-2.5-14-7.5-19s-11.2-7.6-18.5-7.6s-13.6,2.5-18.5,7.5
		c-4.8,5-7.2,11.4-7.2,19.3s2.4,14.4,7.2,19.4s11,7.6,18.5,7.6V724.5z"/>
	<path class="st0" d="M1144.5,652.4h14.5c2.6,0,4.6,2.1,4.6,4.6v89.4c0,11.8-2.6,20.9-7.8,27.5s-13.1,9.8-23.7,9.8
		c-4.2,0-8.6-0.8-13-2.3c-2.3-0.8-3.6-3.3-2.9-5.7l2.8-9.5c0.7-2.3,3.1-3.8,5.4-3.2c1.3,0.3,2.7,0.5,4.1,0.5
		c7.6,0,11.3-5.1,11.3-15.3V657C1139.9,654.5,1141.9,652.4,1144.5,652.4L1144.5,652.4z M1152,639.5c-4,0-7.3-1.3-10-4
		s-4.1-6.1-4.1-10s1.4-7.1,4.1-9.8s6.1-4,10-4s7.3,1.3,10,4s4.1,5.9,4.1,9.8s-1.4,7.3-4.1,9.9s-6.1,4-10,4V639.5z"/>
	<path class="st0" d="M1227.7,745.9c-14.7,0-26.6-4.4-35.7-13.2s-13.7-20.4-13.7-34.8s4.4-25.3,13.2-34.5
		c8.8-9.2,20.3-13.7,34.5-13.7s26,4.4,34.5,13.3c8.4,8.9,12.7,20.1,12.7,33.5c0,1.5,0,2.8-0.1,4c-0.1,2.5-2.2,4.4-4.6,4.4h-60.8
		c-3.2,0-5.5,3.2-4.3,6.2c1.4,3.5,3.5,6.4,6.4,8.8c4.5,3.8,10.7,5.6,18.6,5.6c9.3,0,16.1-3.1,20.5-9.3c1.1-1.6,3.2-2.3,5.1-1.8
		l12.6,3.7c2.9,0.9,4.3,4.3,2.6,6.9c-3.1,4.7-7.4,9-13.1,12.8c-7.7,5.2-17,7.8-28,7.8L1227.7,745.9L1227.7,745.9z M1243.9,690.1
		c3.3,0,5.5-3.3,4.3-6.4s-3.2-5.7-5.8-8c-4.3-3.9-9.8-5.8-16.7-5.8s-12.1,2-16.4,6c-2.6,2.3-4.5,4.9-5.8,7.8c-1.4,3,0.9,6.5,4.2,6.5
		H1243.9L1243.9,690.1z"/>
</g>
</svg>
